<svg xmlns="http://www.w3.org/2000/svg" xmlns:xlink="http://www.w3.org/1999/xlink" style="enable-background:new 0 0 1341.8 1276.3" x="0" y="0" version="1.1" viewBox="0 0 1341.8 1276.3" xml:space="preserve"><style type="text/css">.st14{fill:#ceb799}.st18{fill:#593b23}.st19{fill:#754c28}.st20{fill:#445a5e}.st21{fill:#333}.st22{fill:#e4f1de}.st25{fill:#efd3bf}.st26{fill:#207278}.st28{fill:#404041}.st29{fill:#57accd}.st31{fill:#e6e7e8}.st32{fill:#e1af8d}.st34{fill:#1f6163}.st35{fill:#f79542}.st37{fill:#9b633a}.st72{fill:#b54333}.st73{fill:#c64736}.st74{fill:#d85039}.st75{fill:#e05a48}.st76{fill:#92c9d6}.st77{fill:#4699b2}.st78{fill:#a8926f}.st79{stroke:#207278;stroke-width:30.6494}.st79,.st80,.st81,.st82,.st83{fill:none;stroke-miterlimit:10}.st80{stroke:#333;stroke-width:7.9619}.st81{stroke:#f79542;stroke-width:19.1087}.st82{stroke:#333;stroke-width:10.2165}.st83{stroke:#875330;stroke-width:6.8188}.st84{fill:#875330}.st85{fill:#af734a}.st86{fill:none;stroke:#207278;stroke-width:31.322;stroke-miterlimit:10}</style><g id="_x30_4"><g><g><path d="M1316.8,1142.5c0,73.9-280.1,133.8-625.6,133.8c-345.5,0-625.6-59.9-625.6-133.8 c0-73.9,280.1-133.7,625.6-133.7C1036.7,1008.8,1316.8,1068.7,1316.8,1142.5z" class="st72"/><path d="M1341.8,1086c0,89.7-291.3,162.3-650.6,162.3S40.6,1175.7,40.6,1086c0-89.6,291.3-162.3,650.6-162.3 S1341.8,996.4,1341.8,1086z" class="st73"/><ellipse cx="691.2" cy="994.2" class="st74" rx="650.6" ry="162.3"/><path d="M1341.8,902.3c0,89.7-291.3,162.3-650.6,162.3S40.6,991.9,40.6,902.3c0-89.6,291.3-162.3,650.6-162.3 S1341.8,812.6,1341.8,902.3z" class="st75"/><path d="M1316.8,878.5c0,72-280.1,130.3-625.6,130.3c-345.5,0-625.6-58.3-625.6-130.3c0-72,280.1-130.3,625.6-130.3 C1036.7,748.1,1316.8,806.5,1316.8,878.5z" class="st72"/><path d="M1268.1,904.5c0,57.6-256.8,104.3-573.5,104.3s-573.5-46.7-573.5-104.3c0-57.6,256.8-104.3,573.5-104.3 S1268.1,846.9,1268.1,904.5z" class="st29"/><path d="M593.3,942.7c0,7-5.7,12.7-12.7,12.7c-7,0-12.7-5.7-12.7-12.7c0-7,5.7-12.7,12.7-12.7 C587.6,929.9,593.3,935.6,593.3,942.7z" class="st76"/><path d="M646.3,957.1c0,10.4-8.4,18.7-18.8,18.7c-10.4,0-18.8-8.4-18.8-18.7c0-10.4,8.4-18.8,18.8-18.8 C637.9,938.3,646.3,946.7,646.3,957.1z" class="st77"/><path d="M889.7,947.9c0,5.3-4.3,9.6-9.6,9.6c-5.3,0-9.6-4.3-9.6-9.6c0-5.3,4.3-9.6,9.6-9.6 C885.4,938.3,889.7,942.6,889.7,947.9z" class="st77"/><path d="M786.4,965.2c0,6.3-5.1,11.4-11.4,11.4c-6.3,0-11.4-5.1-11.4-11.4c0-6.3,5.1-11.4,11.4-11.4 C781.3,953.8,786.4,958.9,786.4,965.2z" class="st76"/><path d="M419.1,965.2c0,6.3-5.1,11.4-11.4,11.4c-6.3,0-11.4-5.1-11.4-11.4c0-6.3,5.1-11.4,11.4-11.4 C414,953.8,419.1,958.9,419.1,965.2z" class="st76"/></g><g><g><g><g><path d="M524.4,20.8l-10.7,10.4l-21.5,20.8L617.3,181c0,0,20.8,21.5,42,21.8c21.2,0.3,52.4,32.5,52.4,32.5 l344,354.4l10.8-10.4l-344-354.4c0,0-31.3-32.2-31-53.4c0.3-21.2-20.5-42.6-20.5-42.6L545.9,0L524.4,20.8z" class="st14"/><rect width="15" height="179.6" x="959.8" y="398" class="st78" transform="matrix(0.7177 -0.6963 0.6963 0.7177 -66.6501 811.2753)"/></g><g><path d="M981,460.6c0,0-11.2-10.8-22,0.4l-10.8,11.2c0,0-21.6,22.4,0.9,44c22.4,21.6,44-0.9,44-0.9l10.8-11.2 c0,0,10.8-11.2-0.5-22L981,460.6z" class="st25"/></g><g><path d="M766.6,517c0,0,72.5,152.9,180.2,0" class="st79"/><g><rect width="30.2" height="57" x="931.8" y="488.5" class="st34" transform="matrix(0.713 -0.7012 0.7012 0.713 -90.7348 812.3206)"/><polygon points="977.6 526.7 972 532.2 932 491.5 937.6 486.1" class="st35"/></g></g></g><path d="M548.2,654.3l-3.2,21.9c0,0-6.3,43.8,107.2,60.2C765.7,752.7,772,708.9,772,708.9l3.1-21.9L548.2,654.3z" class="st26"/><polygon points="772.4 706.3 545.4 673.7 576.6 456.7 803.6 489.4" class="st26"/><path d="M845.2,398.2c-37.4-9.5,54.4-149.3-96.9-181.5l-40.2-5.8C590.4,206.4,602.5,359.2,564,357.8 c-38.5-1.4-48.6-89.7-60.2-8.7c-11.7,81.1,62.7,102.1,62.7,102.1l125,18l125,18c0,0,60-1.7,71.6-82.8 C899.8,323.4,882.6,407.7,845.2,398.2" class="st20"/><path d="M599.7,443.9c-2.1,14.4-13.1,24.7-24.5,23.1c-11.5-1.7-19.1-14.7-17-29c2.1-14.4,13.1-24.7,24.5-23.1 C594.1,416.5,601.7,429.5,599.7,443.9z" class="st25"/><path d="M827.9,476.7c-2.1,14.4-13,24.7-24.5,23.1c-11.5-1.7-19.1-14.6-17-29c2.1-14.4,13-24.7,24.5-23.1 C822.4,449.3,830,462.3,827.9,476.7z" class="st25"/><rect width="71.7" height="229.3" x="631.4" y="517.5" class="st19" transform="matrix(0.1425 -0.9898 0.9898 0.1425 -53.6379 1202.4738)"/><path d="M678.4,554.2c102.7,14.8,121.7-46.4,125.1-64.1l0.7-4.7l4.1-28.4c0,0,8.6-71.2-103.3-87.3 c-111.9-16.1-123.7,54.6-123.7,54.6l-4.1,28.4l-0.7,4.7C574.7,475.4,575.7,539.4,678.4,554.2" class="st25"/><path d="M786.7,461.2c-2.8,19.6-21,33.2-40.6,30.4c-19.6-2.8-33.2-21-30.4-40.6c2.8-19.6,21-33.2,40.6-30.4 C776,423.4,789.6,441.6,786.7,461.2" class="st21"/><line x1="703.5" x2="786.2" y1="405.5" y2="517" class="st80"/><path d="M583.1,411.5l0.2-1.4C583.3,410.2,583.2,410.7,583.1,411.5" class="st28"/><path d="M810.3,442.8l-0.2,1.4C810.2,443.3,810.3,442.8,810.3,442.8" class="st28"/><path d="M582.2,418c0,0,47.6-6.3,115.3,3.4c67.8,9.8,111.6,29.2,111.6,29.2s12.5-64.2-104.2-80.9 C588.3,353,582.2,418,582.2,418" class="st29"/><path d="M669.6,447.7c-0.9,6-6.4,10.2-12.4,9.3c-6-0.9-10.2-6.5-9.3-12.5c0.9-6,6.4-10.2,12.5-9.3 C666.3,436.1,670.5,441.7,669.6,447.7" class="st21"/><rect width="12.6" height="33.4" x="755.2" y="404.6" class="st21" transform="matrix(0.2846 -0.9586 0.9586 0.2846 140.8417 1031.4485)"/><path d="M719.8,303.4c1.2,0.6,2.6,1.3,4,2.1c2,1,4.5-0.3,4.8-2.5l2.1-14.9c0.2-1.3-0.4-2.7-1.6-3.3 c-0.2-0.1-0.4-0.3-0.7-0.4c-2.4-1.5-3.1-2.9-2.7-5.3c0.3-2,1.9-3.3,4.6-3.9c1.4-0.3,2.5-1.4,2.7-2.8l0.3-2 c0.3-1.8,2-3.1,3.8-2.8l1,0.1c1.8,0.3,3.1,2,2.8,3.8l-0.3,2.2c-0.2,1.5,0.6,2.9,1.9,3.5c2.3,1.1,4.3,2.6,5.9,4.6 c1.1,1.3,2.9,1.5,4.3,0.6l11.6-7.4c1.6-1,2.1-3.2,1-4.7c-5.8-8.2-15-13.3-27.6-15.1c-8.4-1.2-15.9,0-22.5,3.6 c-6.6,3.6-10.4,9.4-11.6,17.4C702.1,287.6,707.5,296.7,719.8,303.4" class="st21"/><path d="M746.8,293.1c-1.4-0.7-2.8-1.5-4.3-2.2c-2-1-4.5,0.3-4.8,2.5l-2.2,15.2c-0.2,1.4,0.5,2.7,1.7,3.4 c0,0,0,0,0,0c3.1,1.8,4.3,3.6,4,5.9c-0.4,2.6-2.2,4.1-5.4,4.6c-1.4,0.2-2.5,1.4-2.7,2.8l-0.3,2.2c-0.3,1.8-2,3.1-3.8,2.8l-1-0.1 c-1.8-0.3-3.1-2-2.8-3.8l0.3-2c0.2-1.6-0.7-3.1-2.2-3.6c-5.2-1.9-9.5-5.4-12.4-9.5c-1-1.4-2.9-1.8-4.3-0.9l-12.4,7 c-1.6,0.9-2.2,3-1.3,4.6c2.5,4.3,6,8.2,10.6,11.8c5.7,4.4,13.2,7.2,22.7,8.6c22.5,3.2,35.3-5.6,37.7-22 C765.5,308.9,760.7,300.4,746.8,293.1" class="st21"/><path d="M720.5,298.7c1.2,0.6,2.6,1.3,4,2.1c2,1,4.5-0.3,4.8-2.5l2.1-14.9c0.2-1.3-0.4-2.7-1.6-3.3 c-0.2-0.1-0.5-0.3-0.7-0.4c-2.4-1.5-3.1-2.9-2.7-5.3c0.3-2,1.9-3.3,4.6-3.9c1.4-0.3,2.5-1.4,2.7-2.8l0.3-2 c0.3-1.8,2-3.1,3.8-2.8l1,0.1c1.8,0.3,3.1,2,2.8,3.8l-0.3,2.1c-0.2,1.5,0.6,2.9,1.9,3.5c2.3,1.1,4.3,2.7,5.9,4.6 c1.1,1.3,2.9,1.5,4.3,0.6l11.6-7.3c1.6-1,2.1-3.2,1-4.7c-5.8-8.3-15-13.3-27.6-15.1c-8.4-1.2-15.9-0.1-22.5,3.6 c-6.6,3.6-10.4,9.4-11.6,17.4C702.8,282.9,708.2,292,720.5,298.7" class="st22"/><path d="M747.5,288.4c-1.4-0.7-2.8-1.5-4.3-2.2c-2.1-1-4.5,0.3-4.8,2.5l-2.2,15.2c-0.2,1.4,0.5,2.8,1.7,3.4 c0,0,0,0,0,0c3.1,1.8,4.3,3.6,4,5.9c-0.4,2.6-2.2,4.1-5.4,4.6c-1.4,0.2-2.5,1.4-2.7,2.8l-0.3,2.2c-0.3,1.8-2,3.1-3.8,2.8l-1-0.1 c-1.8-0.3-3.1-2-2.8-3.8l0.3-2c0.2-1.6-0.7-3.1-2.2-3.6c-5.2-2-9.5-5.4-12.4-9.5c-1-1.4-2.9-1.8-4.3-0.9l-12.4,7 c-1.6,0.9-2.2,3-1.3,4.6c2.5,4.3,6,8.2,10.6,11.8c5.7,4.4,13.2,7.2,22.7,8.6c22.5,3.2,35.3-5.6,37.7-22 C766.2,304.2,761.4,295.7,747.5,288.4" class="st22"/><path d="M679.3,634.3c-0.8,5.5-5.9,9.4-11.4,8.6c-5.5-0.8-9.3-5.9-8.5-11.4c0.8-5.5,5.9-9.4,11.4-8.6 C676.2,623.7,680.1,628.8,679.3,634.3z" class="st18"/><path d="M729.8,641.6c-0.8,5.5-5.9,9.4-11.5,8.6c-5.5-0.8-9.3-5.9-8.6-11.4c0.8-5.5,5.9-9.4,11.4-8.6 C726.8,631,730.6,636.1,729.8,641.6z" class="st18"/><path d="M765.2,646.7c-0.8,5.5-5.9,9.4-11.4,8.6c-5.5-0.8-9.3-5.9-8.5-11.4c0.8-5.5,5.9-9.4,11.4-8.6 C762.2,636.1,766,641.2,765.2,646.7z" class="st18"/><path d="M613.5,624.9c-0.8,5.5-5.9,9.4-11.4,8.6c-5.5-0.8-9.3-5.9-8.5-11.4c0.8-5.5,5.9-9.4,11.4-8.6 C610.5,614.2,614.3,619.3,613.5,624.9z" class="st18"/><path d="M681,670.4l-33.1-4.8c-10.4-1.5-17.7-11.2-16.2-21.7l4.7-33.1c1.5-10.4,11.2-17.7,21.6-16.2l33.1,4.8 c10.4,1.5,17.7,11.2,16.2,21.6l-4.8,33.1C701.1,664.6,691.4,671.9,681,670.4z" class="st81"/><polygon points="623.6 633.2 666.2 639.3 668.2 625.1 625.7 619" class="st31"/><path d="M644.9,406.8c0,0,16.3-16.5,39.7,2.2" class="st82"/><path d="M757.4,519.7c0,0-18-42.8-53.3-31.8c-30.8-20.5-60.1,15.5-60.1,15.5c-53.9-7.8-62.2-81-60.8-91.8 l-11.7,81.4c-8.3,57.8,64,69.6,64,69.6L688,599h0l60.8-20.2c0,0,41.2,4.6,49.5-53.2l11.7-81.4 C808.4,455,811.3,527.4,757.4,519.7 M699,523.3L699,523.3L699,523.3L699,523.3c-39.6-4.3-40.9-17.9-40.9-17.9 c21.3,8.4,44.2-5.7,44.3-5.7c0,0,18.1,20,40.9,17.9C743.2,517.6,738.2,530.3,699,523.3" class="st21"/><path d="M724.3,485.7c-0.6,4.2-10.7,6.2-22.7,4.5c-11.9-1.7-21.1-6.5-20.5-10.7c0.6-4.2,10.8-6.2,22.7-4.5 C715.7,476.7,724.9,481.5,724.3,485.7z" class="st32"/></g><g><g><path d="M207.3,673.2c0,0,431.7,40.7,974.6-8.6c0,0-49.4,246.8-246.8,246.8H271.5L207.3,673.2z" class="st37"/><line x1="1146.2" x2="221.5" y1="763.2" y2="763.2" class="st83"/><line x1="1167.4" x2="212.3" y1="713.9" y2="713.9" class="st83"/><line x1="1070.9" x2="251.8" y1="862" y2="862" class="st83"/><line x1="1116.4" x2="232" y1="812.6" y2="812.6" class="st83"/></g><polygon points="207.3 673.2 184.4 673.2 248.1 911.3 271.5 911.3" class="st84"/><path d="M1005,911.3c0,0,151.2-54.3,200.8-257H1182c0,0-16.8,150.6-188,250.2L1005,911.3z" class="st84"/><path d="M403.7,914.8c0,0,299.1,22.5,625.9,0C1029.6,914.8,1203.3,836.6,403.7,914.8z" class="st76"/><rect width="275.9" height="49.4" x="337.7" y="763.2" class="st84"/><rect width="125.5" height="49.4" x="212.3" y="713.9" class="st84"/><ellipse cx="880.1" cy="837.3" class="st85" rx="17.6" ry="8.4"/></g><g><path d="M81.6,1032l7.7,12.8l15.5,25.6l153.7-93c0,0,25.6-15.5,30.7-36.1c5.1-20.5,43.5-43.8,43.5-43.8 l422.6-255.7l-7.7-12.8L324.9,884.8c0,0-38.4,23.2-59,18.2c-20.6-5-46.2,10.5-46.2,10.5l-153.7,93L81.6,1032z" class="st14"/><polygon points="709.1 652.4 716.8 665.2 563.1 758.2 555.4 745.3" class="st78"/></g><g><g><path d="M649.4,718.4c0,0,13.4-8.6,4.8-22l-8.6-13.4c0,0-17.1-26.8-43.9-9.7c-26.8,17.1-9.7,43.9-9.7,43.9 l8.6,13.4c0,0,8.6,13.4,22,4.9L649.4,718.4z" class="st25"/><path d="M671.3,670.6c0,0,0.8,15.9-15.1,16.7l-15.9,0.8c0,0-15.9,0.8-16.7-15.1L671.3,670.6z" class="st25"/></g><path d="M573.5,531.5c0,0-148.7,42,33.4,141.4" class="st86"/><g><rect width="58.3" height="30.8" x="569.5" y="655.2" class="st34" transform="matrix(0.8338 -0.5521 0.5521 0.8338 -270.7096 442.0105)"/><rect width="58.3" height="8" x="575.9" y="676.1" class="st35" transform="matrix(0.8334 -0.5527 0.5527 0.8334 -275.0869 447.6982)"/></g></g><line x1="933.5" x2="933.5" y1="763.2" y2="713.9" class="st83"/><line x1="492.9" x2="492.9" y1="763.2" y2="713.9" class="st83"/></g><g><rect width="33" height="40.8" x="22.9" y="846.8" class="st75" transform="matrix(0.5899 -0.8075 0.8075 0.5899 -684.1342 387.4183)"/><polygon points="24.5 869.5 0 855.2 18.2 831.4 37.2 852.1" class="st14"/></g><line x1="766.6" x2="766.6" y1="812.6" y2="862" class="st83"/><line x1="490.2" x2="490.2" y1="812.6" y2="862" class="st83"/></g></g></svg>