<svg xmlns="http://www.w3.org/2000/svg" xmlns:xlink="http://www.w3.org/1999/xlink" style="enable-background:new 0 0 1217.7 689.2" x="0" y="0" version="1.1" viewBox="0 0 1217.7 689.2" xml:space="preserve"><style type="text/css">.st18{fill:#593b23}.st20{fill:#445a5e}.st21{fill:#333}.st22{fill:#e4f1de}.st25{fill:#efd3bf}.st28{fill:#404041}.st29{fill:#57accd}.st32{fill:#e1af8d}.st38{fill:#f1f1f2}.st53{fill:#fff}.st63{fill:#d0d2d3}.st70{fill:#a6a8ab}.st87{fill:#249386}.st88{fill:#d75038}.st89{fill:#eb9759}.st90{fill:#288ea9}.st91{fill:#1f4e80}.st92{fill:#c74328}.st93{fill:#414141}.st94{fill:#59595c}.st95{fill:#28a4d2}.st96{fill:#ffe6c5}.st97{fill:#df4e28}.st98{fill:#bbb}.st99{fill:none;stroke:#6d6f71;stroke-width:5.6706;stroke-miterlimit:10}.st100{fill:#6d6f71}.st101{stroke:#efd3bf;stroke-width:25.0788}.st101,.st102,.st103,.st104{fill:none;stroke-miterlimit:10}.st102,.st103{stroke:#333;stroke-width:6.5148}.st103{stroke-width:8.3596}.st104{stroke:#efd3bf;stroke-width:25.6291}.st105{fill:#8fd0e5}.st106{fill:#a3e1ef}.st107{fill:#093858}.st108{fill:#105072}.st109{fill:#aedde5}</style><g id="_x30_5"><g><ellipse cx="570.9" cy="661.8" class="st87" rx="570.9" ry="27.4"/><g><path d="M1028.2,319.1c0,0-8.8,18,9.2,26.8c18,8.8,33.9-14.7,33.9-14.7L1028.2,319.1z" class="st88"/><g><path d="M1114.7,342.1c0,0,68.1,59,83.2,48.5C1204.8,375.3,1114.7,342.1,1114.7,342.1z" class="st88"/><path d="M1094.9,320c0,0,93,68.8,110.6,54.3C1212.2,354.3,1094.9,320,1094.9,320z" class="st88"/><path d="M1091,341.5c0,0,76.2,81.1,97.1,69.7C1199.4,392.8,1091,341.5,1091,341.5z" class="st88"/><path d="M1075.3,333.2c0,0,67.8,79.4,81,78.1C1161.4,402.1,1075.3,333.2,1075.3,333.2z" class="st88"/><path d="M1071.6,317.2c0,0,81.4,71.3,100.9,62.6C1181.9,364.8,1071.6,317.2,1071.6,317.2z" class="st89"/><path d="M1065.8,309.5c0,0,95.1,63,111.5,51.9C1182.6,345,1065.8,309.5,1065.8,309.5z" class="st89"/><path d="M1060.7,311.1c0,0,70.9,75.6,88.7,72C1158.4,372.4,1060.7,311.1,1060.7,311.1z" class="st89"/><path d="M1052.2,311.3c0,0,52.3,80.9,75.7,77C1143.8,376.8,1052.2,311.3,1052.2,311.3z" class="st89"/><path d="M1039.7,299.6c0,0,82.4,68.7,101.5,61C1150.2,346.7,1039.7,299.6,1039.7,299.6z" class="st90"/><path d="M1040.2,299.2c0,0,96.3,60.8,112.2,50.6C1157.1,334.5,1040.2,299.2,1040.2,299.2z" class="st91"/><path d="M1035.4,302.8c0,0,71.9,72.8,92.8,66.8C1139.9,357,1035.4,302.8,1035.4,302.8z" class="st90"/></g><g><path d="M1013.2,235.5c0,0,123.7,49.3,189.2,27.4c0,0-16.6,26.9-34,31.1l10.8,6.6c0,0-13.3,21.5-41.5,19l10.8,6.6 c0,0-137.3,41.8-184.4-98.8L1013.2,235.5z" class="st88"/><path d="M1013.2,235.5c0,0,57.8,35.6,126.2,33.2c0,0-4.6,19.5-22,23.6l10.8,6.6c0,0-15.4,12.8-29.5,11.6l16.2,10 c0,0-95.8,22.7-145.5-89.7L1013.2,235.5z" class="st88"/><path d="M1013.2,235.5c0,0,38.3,31,71.9,36.9c0,0-13.3,21.5-38.2,13.7c0,0,10.8,6.6,12.8,15.3 c0,0-54.3,3.7-97.8-82.6L1013.2,235.5z" class="st92"/></g><path d="M956.3,233.3c0,0,18.7,140.8,116.2,95.3l-87.2-105.2L956.3,233.3z" class="st88"/><path d="M1030.9,249.9c0,0-9.4-20.7-35.4-58.3c-34.1-49.4-51.9-15.2-51.9-15.2l12.6,57L1030.9,249.9z" class="st88"/><path d="M999.3,218.2c0,0-48.1-20.3-45.6-2.6c2.5,17.7-5-35.4-5-35.4S981.7,157.4,999.3,218.2z" class="st53"/><path d="M969.6,184c-1.1,1.4-0.8,3.4,0.6,4.4c1.4,1.1,3.4,0.8,4.4-0.6c1-1.4,0.8-3.4-0.6-4.4 C972.7,182.3,970.7,182.6,969.6,184z" class="st93"/><path d="M953.4,222.4c0,0-12.6-25.3-20.2-15.2l15.2-20.2C948.4,187,957.3,185.7,953.4,222.4z" class="st94"/><g><path d="M1029.2,254.3c0,0,122.5,52.2,188.5,31.9c0,0-17.3,26.5-34.8,30.2l10.6,6.9c0,0-13.8,21.2-41.9,18.1 l10.6,6.9c0,0-138.2,38.5-182-103.2L1029.2,254.3z" class="st95"/><path d="M1029.2,254.3c0,0,62.2,40.4,130.7,39.6c0,0-10.4,15.9-27.9,19.6l10.6,6.9c0,0-15.6,12.5-29.7,10.9 l15.9,10.3c0,0-96.3,20.4-143.3-93.1L1029.2,254.3z" class="st89"/><path d="M1024,253.6c0,0,48.5,41.1,106.7,47.8c0,0-10.5,12.4-25.8,13.7l8.3,7c0,0-14.6,8.9-26.4,6l12.4,10.5 c0,0-84,6.9-111.6-94.6L1024,253.6z" class="st96"/><path d="M1029.2,254.3c0,0,37.5,31.9,71,38.6c0,0-13.8,21.2-38.5,12.7c0,0,10.6,6.9,12.5,15.6 c0,0-54.4,2.4-95.8-84.9L1029.2,254.3z" class="st97"/></g><path d="M952.6,187.3c0,0,2.6-5.8-8.9-11c0,0-30.4,20.9-12.6,42.9C931.1,219.3,927.9,210.9,952.6,187.3z" class="st98"/><line x1="1041.1" x2="1028.7" y1="342.7" y2="370.1" class="st99"/><g><path d="M1034.9,366.3c0,0,5.6,9-5.4,7.4c-11-1.5-31.8,4.3-20.1,16.2c0,0-23.3-11.3,7-21.1 C1016.5,368.9,1028.4,360.6,1034.9,366.3z" class="st100"/><path d="M1038.9,384.9c0,0,16-14.4-5.6-19.4c0,0-0.2,3.5-0.4,6.9c-0.1,0.9-0.1,0.9-0.1,0.9 S1043.2,371.4,1038.9,384.9z" class="st100"/></g></g><g><g><g><path d="M651.1,213.9c0,0-9.2-8.8-18,0.4l-8.8,9.2c0,0-17.6,18.4,0.7,36c18.4,17.7,36-0.7,36-0.7l8.8-9.2 c0,0,8.8-9.2-0.4-18L651.1,213.9z" class="st25"/></g><g><path d="M485.1,252.5c0,0,59.3,125.1,147.5,0" class="st101"/></g></g><path d="M306.4,364.9l-2.6,17.9c0,0-5.2,35.9,87.7,49.2c92.9,13.4,98-22.5,98-22.5l2.6-17.9L306.4,364.9z" class="st25"/><polygon points="489.8 407.5 304.1 380.7 329.6 203.2 515.4 229.9" class="st25"/><path d="M489.1,323.4c-0.7,4.5-4.9,7.7-9.4,7c-4.5-0.7-7.6-4.8-7-9.4c0.6-4.5,4.8-7.7,9.4-7 C486.6,314.7,489.8,318.9,489.1,323.4z" class="st18"/><path d="M359.8,309.3c-0.7,4.5-4.8,7.7-9.4,7c-4.5-0.7-7.6-4.8-7-9.4c0.6-4.5,4.8-7.7,9.4-7 C357.3,300.6,360.5,304.8,359.8,309.3z" class="st18"/><g><path d="M533.9,130.4C502.4,128.7,553.9,2,427.4,0l-33.2,1.7c-95.3,15-61.4,135.7-92.5,140.6 c-31.1,5-53.2-64.4-49.7,2.5c3.4,66.9,66.5,72.1,66.5,72.1l103.2-5.3l103.2-5.3c0,0,47.9-10.9,44.4-77.8 C565.8,61.7,565.4,132.1,533.9,130.4" class="st20"/><path d="M344,205.8c0.6,11.9-6.6,21.9-16,22.4c-9.5,0.5-17.6-8.8-18.2-20.6c-0.6-11.9,6.6-21.9,16-22.4 C335.2,184.7,343.3,193.9,344,205.8z" class="st25"/><path d="M532.4,196.2c0.6,11.9-6.6,21.9-16,22.4c-9.5,0.5-17.6-8.7-18.2-20.6c-0.6-11.9,6.6-21.9,16-22.4 C523.6,175,531.8,184.3,532.4,196.2z" class="st25"/><path d="M424.6,282c84.8-4.4,90.4-56.4,90.3-71.2l-0.2-3.9l-1.2-23.4c0,0-4.3-58.5-96.7-53.7 c-92.4,4.7-90.7,63.4-90.7,63.4l1.2,23.4l0.2,3.9C328.9,235.1,339.8,286.3,424.6,282" class="st25"/><path d="M496.9,190.2c0.8,16.2-11.6,29.9-27.8,30.8c-16.2,0.8-30-11.6-30.8-27.8c-0.8-16.2,11.6-30,27.8-30.8 C482.3,161.6,496.1,174,496.9,190.2" class="st21"/><line x1="421.3" x2="505.3" y1="158.6" y2="235.1" class="st102"/><path d="M325.6,182.5l0-1.1C325.5,181.4,325.5,181.8,325.6,182.5" class="st28"/><path d="M512.9,171.7l0.1,1.1C512.9,172.1,512.9,171.7,512.9,171.7" class="st28"/><path d="M325.8,187.9c0,0,37.2-12.6,93.1-15.5c56-2.9,94.2,5.8,94.2,5.8s-0.1-53.5-96.4-48.5 C320.5,134.7,325.8,187.9,325.8,187.9" class="st29"/><path d="M400.7,197.9c0.3,5-3.6,9.2-8.5,9.4c-5,0.3-9.2-3.6-9.5-8.5c-0.3-5,3.6-9.2,8.5-9.4 C396.3,189.1,400.5,192.9,400.7,197.9" class="st21"/><polygon points="483.5 168.6 456.3 166 457.2 155.8 484.5 158.3" class="st21"/><path d="M418.2,74.1c1.1,0.3,2.3,0.7,3.6,1c1.8,0.5,3.5-0.9,3.5-2.8l-0.6-12.3c-0.1-1.1-0.8-2.1-1.8-2.4 c-0.2-0.1-0.4-0.1-0.6-0.2c-2.1-0.8-2.9-1.9-3-3.9c-0.1-1.6,1-3,3.1-3.8c1.1-0.4,1.8-1.5,1.7-2.7l-0.1-1.7 c-0.1-1.5,1.1-2.8,2.6-2.9l0.8,0c1.5-0.1,2.8,1.1,2.9,2.6l0.1,1.8c0.1,1.2,0.9,2.2,2.1,2.5c2,0.5,3.9,1.4,5.5,2.8 c1.1,0.8,2.6,0.7,3.6-0.2l8.1-7.7c1.1-1.1,1.2-2.9,0-3.9c-6-5.7-14.1-8.3-24.5-7.8c-6.9,0.4-12.8,2.5-17.5,6.4 c-4.7,4-6.9,9.2-6.5,15.8C401.5,64.2,407.3,70.7,418.2,74.1" class="st21"/><path d="M438.3,61.5c-1.2-0.4-2.5-0.7-3.8-1.1c-1.8-0.5-3.5,0.9-3.5,2.8l0.6,12.6c0.1,1.1,0.8,2.1,1.9,2.5 c0,0,0,0,0,0c2.8,1,4,2.2,4.2,4.1c0.1,2.1-1.1,3.6-3.6,4.5c-1.1,0.4-1.8,1.5-1.7,2.7l0.1,1.9c0.1,1.5-1.1,2.8-2.6,2.9l-0.8,0 c-1.5,0.1-2.8-1.1-2.9-2.6l-0.1-1.6c-0.1-1.3-1-2.4-2.3-2.6c-4.5-0.7-8.5-2.8-11.4-5.7c-1-1-2.6-1-3.6-0.1l-8.9,7.6 c-1.1,1-1.3,2.7-0.3,3.9c2.7,3,6.2,5.6,10.4,7.8c5.3,2.6,11.7,3.7,19.6,3.3c18.6-1,27.5-10.1,26.8-23.6 C455.8,71.3,450.6,65.2,438.3,61.5" class="st21"/><path d="M418,70.2c1.1,0.3,2.3,0.7,3.6,1c1.8,0.5,3.5-0.9,3.4-2.8l-0.6-12.3c-0.1-1.1-0.8-2.1-1.8-2.4 c-0.2-0.1-0.4-0.1-0.6-0.2c-2.2-0.8-2.9-1.9-3-3.9c-0.1-1.6,1-3,3.1-3.8c1.1-0.4,1.8-1.5,1.7-2.7l-0.1-1.7 c-0.1-1.5,1.1-2.8,2.6-2.9l0.8,0c1.5-0.1,2.8,1.1,2.9,2.6L430,43c0.1,1.2,0.9,2.2,2.1,2.5c2,0.5,3.9,1.5,5.5,2.8 c1,0.8,2.6,0.7,3.6-0.2l8.1-7.7c1.1-1.1,1.2-2.9,0-3.9c-6-5.7-14.1-8.3-24.5-7.8c-6.9,0.4-12.8,2.5-17.5,6.4 c-4.7,4-6.9,9.2-6.5,15.8C401.3,60.3,407.1,66.8,418,70.2" class="st22"/><path d="M438.1,57.6c-1.2-0.4-2.5-0.7-3.8-1.1c-1.8-0.5-3.6,0.9-3.5,2.8l0.6,12.6c0.1,1.1,0.8,2.1,1.9,2.5 c0,0,0,0,0,0c2.8,1,4,2.2,4.1,4.1c0.1,2.1-1.1,3.6-3.6,4.5c-1.1,0.4-1.8,1.5-1.7,2.7l0.1,1.8c0.1,1.5-1.1,2.8-2.6,2.9l-0.8,0 c-1.5,0.1-2.8-1.1-2.9-2.6l-0.1-1.6c-0.1-1.3-1-2.4-2.3-2.6c-4.5-0.8-8.4-2.8-11.4-5.7c-1-1-2.6-1-3.6-0.1l-8.9,7.6 c-1.2,1-1.3,2.7-0.3,3.9c2.7,3,6.1,5.6,10.4,7.8c5.3,2.6,11.8,3.7,19.6,3.3c18.6-1,27.5-10.1,26.8-23.6 C455.6,67.4,450.4,61.3,438.1,57.6" class="st22"/><path d="M374.4,168.9c0,0,10.5-15.8,32.2-4.5" class="st103"/><path d="M482.6,241.8c0,0-21.2-31.5-47.8-17.1c-28-11.6-45.8,21.9-45.8,21.9c-44.5,2.3-62.8-55.2-63.3-64.1 l3.5,67.2c2.4,47.7,62.4,45.7,62.4,45.7l48,21h0l45.6-25.8c0,0,33.8-2.8,31.3-50.5l-3.5-67.2 C513.3,181.8,527.1,239.5,482.6,241.8 M436.2,254L436.2,254L436.2,254L436.2,254c-32.5,2.8-35.6-7.9-35.6-7.9 c18.4,3.4,34.6-11.5,34.6-11.6c0,0,17.7,13.2,35.6,8C470.9,242.4,468.8,253.4,436.2,254" class="st21"/><path d="M450.6,219.7c0.2,3.5-7.6,6.7-17.5,7.2c-9.8,0.5-18-1.9-18.1-5.3c-0.2-3.5,7.7-6.7,17.5-7.2 C442.3,213.9,450.5,216.2,450.6,219.7z" class="st32"/></g><g><g><path d="M392.7,417.3c0,0,11-7,3.9-18l-7-11c0,0-14-21.9-36-7.9c-21.9,14-7.9,36-7.9,36l7,11c0,0,7,11,18,4 L392.7,417.3z" class="st25"/><path d="M410.6,378.2c0,0,0.6,13-12.4,13.6l-13,0.7c0,0-13,0.6-13.7-12.3L410.6,378.2z" class="st25"/></g><path d="M330.5,264.4c0,0-121.7,34.3,27.3,115.7" class="st104"/></g><ellipse cx="391.7" cy="209.4" class="st25" rx="18.1" ry="10.1"/></g><g><path d="M759.4,400.9c0,0,0-93.6,93.6-93.6c93.6,0,93.6,93.6,93.6,93.6H759.4z" class="st105"/><path d="M85.5,400.9c0,0,0-112.3,112.3-112.3c112.3,0,112.3,112.3,112.3,112.3H85.5z" class="st105"/><path d="M235.2,400.9c0,0,0-74.9,74.9-74.9c74.9,0,74.9,74.9,74.9,74.9H235.2z" class="st106"/><path d="M572.2,400.9c0,0,0-74.9,74.9-74.9c74.9,0,74.9,74.9,74.9,74.9H572.2z" class="st105"/><path d="M534.7,400.9c0,0,0-56.2,56.2-56.2c56.2,0,56.2,56.2,56.2,56.2H534.7z" class="st106"/><path d="M684.5,400.9c0,0,0-56.2,56.2-56.2c56.2,0,56.2,56.2,56.2,56.2H684.5z" class="st106"/><path d="M909.1,400.9c0,0,0-56.2,56.2-56.2c56.2,0,56.2,56.2,56.2,56.2H909.1z" class="st105"/></g><path d="M214.8,605.9c0,0-19,9.5-9.5,28.5c9.5,19,0,28.5,0,28.5h19c0,0,28.5-19,9.5-57.1H214.8z" class="st70"/><path d="M895.6,605.9c0,0,19,9.5,9.5,28.5c-9.5,19,0,28.5,0,28.5h-19c0,0-28.5-19-9.5-57.1H895.6z" class="st70"/><path d="M552.4,421.6H84.3c0,0,0,202.4,156,202.4c156,0,312,0,312,0s156,0,312,0c156,0,156-202.4,156-202.4H552.4z" class="st63"/><path d="M1059.5,402.1c0,10.8-8.7,19.5-19.5,19.5H64.8c-10.8,0-19.5-8.7-19.5-19.5l0,0c0-10.8,8.7-19.5,19.5-19.5 H1040C1050.7,382.6,1059.5,391.3,1059.5,402.1L1059.5,402.1z" class="st38"/><g><g><g><path d="M755.9,194.3c0,0-4.6,31.8-33,36.9l-117.7,21.5l-14.3-28.4L755.9,194.3z" class="st107"/></g><g><polygon points="591.1 225.5 756.1 195.4 792.6 178.5 791.8 176.4 755.5 193.3 590.7 223.3" class="st107"/></g><g><polygon points="666.2 209.4 669.3 208.8 653.1 108.5 650 109.1" class="st107"/></g><g><polygon points="631.3 216.9 634.4 216.3 621.5 136.1 618.3 136.7" class="st107"/></g><g><polygon points="724.8 198.6 728 198 715 117.8 711.9 118.4" class="st107"/></g><g><polygon points="623.4 218.3 590.9 224.4 587.7 204.3 620.1 198.3" class="st107"/></g><g><polygon points="587.7 204.3 620.1 198.3 620.1 194.3 586.8 198.8" class="st108"/></g><g><polygon points="706.6 202.1 735 196.9 733.3 186.9 704.9 192.1" class="st108"/></g><g><polygon points="623.4 218.3 642.3 214.9 640.7 204.9 621.8 208.3" class="st108"/></g><g><path d="M650.5,112.2c0,0,76.3,12.1,46.5,69.1c0,0-3.2-20-28.4,5.1C668.5,186.4,683.7,137.1,650.5,112.2z" class="st29"/></g><g><path d="M621.5,146.5c0,0,36.3,2,23.1,47.4c0,0-2.7-16.7-15,2.7C629.6,196.6,640.5,168.8,621.5,146.5z" class="st29"/></g><g><path d="M712.9,128.5c0,0,36.3,2,23.1,47.4c0,0-2.7-16.7-15,2.7C721,178.7,731.9,150.9,712.9,128.5z" class="st29"/></g><g><polygon points="660.1 188 701 180.6 700.6 177.7 659.6 185.1" class="st107"/></g></g></g><circle cx="164" cy="226.1" r="16.8" class="st109"/><circle cx="699.6" cy="299.3" r="8" class="st109"/><path d="M777.6,266.7c0,7.7-6.2,13.9-13.9,13.9c-7.7,0-13.9-6.2-13.9-13.9c0-7.7,6.2-13.9,13.9-13.9 C771.3,252.8,777.6,259,777.6,266.7z" class="st109"/><circle cx="841.1" cy="278.9" r="11.8" class="st109"/><circle cx="243.4" cy="218.3" r="8.2" class="st109"/><circle cx="191.7" cy="93.3" r="10.9" class="st109"/><circle cx="92.8" cy="287.4" r="8.5" class="st109"/></g></g></svg>