<svg xmlns="http://www.w3.org/2000/svg" xmlns:xlink="http://www.w3.org/1999/xlink" style="enable-background:new 0 0 779.7 955" x="0" y="0" version="1.1" viewBox="0 0 779.7 955" xml:space="preserve"><style type="text/css">.st18{fill:#593b23}.st19{fill:#754c28}.st20{fill:#445a5e}.st21{fill:#333}.st22{fill:#e4f1de}.st25{fill:#efd3bf}.st26{fill:#207278}.st28{fill:#404041}.st29{fill:#57accd}.st31{fill:#e6e7e8}.st32{fill:#e1af8d}.st34{fill:#1f6163}.st35{fill:#f79542}.st53{fill:#fff}.st54{fill:#855a35}.st55{fill:#91623d}.st56{fill:#754d29}.st57{fill:#593c24}.st58{fill:#93643e}.st59,.st60{fill:none;stroke:#593c24;stroke-width:3.5185;stroke-miterlimit:10}.st60{stroke:#472f1f}.st61{fill:#472f1f}.st62{fill:#734e33}.st63{fill:#d0d2d3}.st64{stroke:#207278;stroke-width:34.524}.st64,.st65,.st66,.st67,.st68{fill:none;stroke-miterlimit:10}.st65{stroke:#333;stroke-width:9.59}.st66{stroke:#f79542;stroke-width:23.0159}.st67{stroke:#333;stroke-width:18.4583}.st68{stroke:#207278;stroke-width:24.6111}.st69{fill:#82532f}.st70{fill:#a6a8ab}.st71{fill:#6d6e70}</style><g id="_x30_3"><g><g><path d="M443.3,606.7h-31.7v4.2c-63.3,18.3-63.3,90.8-63.3,90.8h63.3h31.7h95C538.3,701.7,538.3,606.7,443.3,606.7z" class="st54"/><path d="M316.7,701.7c0,0,0-95,95-95c95,0,95,95,95,95H316.7z" class="st55"/><rect width="316.7" height="95" x="95" y="606.7" class="st55"/><path d="M126.7,606.7H95v4.2c-63.3,18.3-63.3,90.8-63.3,90.8H95h31.7h95C221.7,701.7,221.7,606.7,126.7,606.7z" class="st54"/><rect width="190" height="253.3" y="701.7" class="st56"/><rect width="126.7" height="190" x="31.7" y="733.3" class="st57"/><rect width="348.3" height="253.3" x="190" y="701.7" class="st58"/><rect width="285" height="190" x="221.7" y="733.3" class="st56"/><line x1="221.7" x2="506.7" y1="796.7" y2="796.7" class="st59"/><line x1="221.7" x2="506.7" y1="860" y2="860" class="st59"/><line x1="158.3" x2="31.7" y1="796.7" y2="796.7" class="st60"/><line x1="158.3" x2="31.7" y1="860" y2="860" class="st60"/><rect width="15.8" height="190" x="490.8" y="733.3" class="st57"/><rect width="15.8" height="190" x="31.7" y="733.3" class="st61"/><path d="M0,701.7c0,0,0-95,95-95c95,0,95,95,95,95H0z" class="st62"/><path d="M31.7,685.8c0,0,0-63.3,63.3-63.3c63.3,0,63.3,63.3,63.3,63.3H31.7z" class="st57"/><rect width="95" height="63.3" x="316.7" y="701.7" class="st63"/><g><circle cx="364.2" cy="725.7" r="11.4" class="st28"/><polygon points="352.8 752.3 360.4 729.5 368 729.5 375.5 752.3" class="st28"/></g></g><g><path d="M673.6,328c-11.8,24.4-34.9,37.7-51.8,29.6c-16.8-8.1-21-34.5-9.2-58.9c11.8-24.4,34.9-37.7,51.8-29.6 C681.3,277.2,685.4,303.6,673.6,328z" class="st25"/><path d="M404.8,346.5c0,0,105.2,166.1,215.9,0" class="st64"/><path d="M157,570.1v26.7c0,0,0,53.3,138.1,53.3c138.1,0,138.1-53.3,138.1-53.3v-26.7H157z" class="st26"/><rect width="276.2" height="197.4" x="157" y="384" class="st26"/><path d="M458.3,189.6C411.9,187.7,485,0.1,298.7,0L250,3.3c-139.9,24.1-87.3,201.1-133,209.1 c-45.7,8-79.7-93.5-73.2,4.9c6.6,98.4,99.5,104.6,99.5,104.6L295,311.7l151.7-10.1c0,0,70.2-17,63.7-115.5 C503.9,87.7,504.7,191.4,458.3,189.6" class="st20"/><path d="M180.5,304.8c1.2,17.5-9.2,32.4-23.1,33.3c-13.9,0.9-26.2-12.5-27.3-30c-1.2-17.5,9.2-32.4,23.1-33.3 C167.1,273.9,179.3,287.3,180.5,304.8z" class="st25"/><path d="M457.7,286.3c1.2,17.5-9.2,32.4-23.1,33.3c-13.9,0.9-26.1-12.5-27.3-30c-1.2-17.5,9.2-32.4,23.1-33.3 C444.3,255.5,456.5,268.9,457.7,286.3z" class="st25"/><rect width="276.2" height="86.3" x="157" y="467.9" class="st19"/><path d="M173.4,394.9c0,0-137.9,59,8.5,132.4" class="st64"/><path d="M300.9,415.1c124.7-8.3,131.8-85.1,131.3-106.8l-0.4-5.7l-2.3-34.4c0,0-7.7-86-143.5-76.9 c-135.9,9.1-132,95.3-132,95.3l2.3,34.4l0.4,5.7C159,348.2,176.2,423.4,300.9,415.1" class="st25"/><path d="M405.2,278.4c1.6,23.8-16.4,44.3-40.2,45.9c-23.8,1.6-44.3-16.4-45.9-40.2c-1.6-23.8,16.4-44.3,40.2-45.9 C383.1,236.6,403.6,254.6,405.2,278.4" class="st21"/><line x1="293.2" x2="418.6" y1="233.6" y2="344.3" class="st65"/><path d="M152.9,270.9l-0.1-1.7C152.8,269.2,152.9,269.8,152.9,270.9" class="st28"/><path d="M428.4,250.9l0.1,1.7C428.5,251.5,428.4,250.9,428.4,250.9" class="st28"/><path d="M153.5,278.8c0,0,54.4-19.4,136.7-24.9c82.3-5.5,138.8,6.5,138.8,6.5s-1.4-78.7-143-69.3 C144.4,200.6,153.5,278.8,153.5,278.8" class="st29"/><path d="M282,290.6c0.5,7.3-5,13.6-12.3,14.1c-7.3,0.5-13.6-5-14.1-12.3c-0.5-7.3,5-13.6,12.3-14.1 C275.3,277.8,281.6,283.3,282,290.6" class="st21"/><rect width="15.2" height="40.3" x="358" y="217.6" class="st21" transform="matrix(7.916152e-02 -0.9969 0.9969 7.916152e-02 99.626 583.3592)"/><path d="M286.9,109.3c1.6,0.5,3.4,0.9,5.3,1.4c2.7,0.7,5.2-1.4,5-4.2L296,88.5c-0.1-1.6-1.2-3-2.7-3.5 c-0.3-0.1-0.6-0.2-0.9-0.3c-3.2-1.1-4.3-2.7-4.5-5.6c-0.2-2.4,1.4-4.4,4.4-5.7c1.6-0.7,2.6-2.3,2.5-4l-0.2-2.4 c-0.1-2.2,1.5-4.1,3.8-4.3l1.2-0.1c2.2-0.1,4.2,1.5,4.3,3.8l0.2,2.6c0.1,1.8,1.4,3.2,3.2,3.7c3,0.7,5.7,2,8.1,3.9 c1.6,1.2,3.8,1,5.2-0.4l11.8-11.6c1.6-1.6,1.6-4.3,0-5.8c-8.9-8.3-21-11.9-36.3-10.9c-10.2,0.7-18.7,3.9-25.6,9.9 c-6.9,5.9-9.9,13.7-9.3,23.5C262,95.1,270.7,104.4,286.9,109.3" class="st21"/><path d="M316.1,90.3c-1.8-0.5-3.7-1-5.6-1.5c-2.6-0.7-5.2,1.4-5,4.2l1.2,18.5c0.1,1.7,1.3,3.1,2.9,3.6c0,0,0,0,0,0 c4.1,1.4,6,3.2,6.2,6c0.2,3.1-1.5,5.4-5.2,6.8c-1.6,0.6-2.6,2.3-2.5,4l0.2,2.7c0.1,2.2-1.5,4.1-3.8,4.3l-1.2,0.1 c-2.2,0.1-4.1-1.5-4.3-3.8l-0.2-2.4c-0.1-1.9-1.6-3.4-3.5-3.7c-6.6-1-12.5-3.9-17-8.1c-1.5-1.4-3.8-1.4-5.3,0l-12.9,11.4 c-1.7,1.5-1.9,4.1-0.3,5.7c4,4.4,9.2,8.2,15.4,11.3c7.8,3.8,17.4,5.2,28.9,4.4c27.3-1.8,40.2-15.4,38.9-35.4 C342.1,104.3,334.3,95.5,316.1,90.3" class="st21"/><path d="M286.5,103.6c1.6,0.5,3.4,0.9,5.3,1.4c2.7,0.7,5.2-1.4,5-4.2l-1.2-18.1c-0.1-1.6-1.2-3-2.7-3.5 c-0.3-0.1-0.6-0.2-0.9-0.3c-3.2-1.1-4.3-2.7-4.5-5.6c-0.2-2.4,1.4-4.4,4.4-5.7c1.6-0.7,2.6-2.3,2.5-4l-0.2-2.4 c-0.1-2.2,1.5-4.1,3.8-4.3l1.2-0.1c2.2-0.1,4.2,1.5,4.3,3.8l0.2,2.6c0.1,1.8,1.4,3.2,3.2,3.7c3,0.7,5.7,2,8.1,3.9 c1.6,1.2,3.8,1,5.2-0.4l11.8-11.6c1.6-1.6,1.7-4.3,0-5.8c-8.9-8.3-21-11.9-36.3-10.9c-10.2,0.7-18.7,3.9-25.6,9.9 c-6.9,5.9-9.9,13.7-9.3,23.4C261.7,89.4,270.3,98.7,286.5,103.6" class="st22"/><path d="M315.8,84.6c-1.8-0.5-3.7-1-5.6-1.5c-2.7-0.7-5.2,1.5-5,4.2l1.2,18.5c0.1,1.7,1.3,3.1,2.9,3.6c0,0,0,0,0,0 c4.1,1.4,6,3.2,6.2,6c0.2,3.1-1.5,5.4-5.2,6.8c-1.6,0.6-2.6,2.3-2.5,4l0.2,2.7c0.1,2.2-1.5,4.1-3.8,4.3l-1.2,0.1 c-2.2,0.1-4.1-1.5-4.3-3.8l-0.2-2.4c-0.1-1.9-1.6-3.4-3.5-3.7c-6.6-1-12.5-3.9-17-8.1c-1.5-1.4-3.8-1.4-5.3,0l-12.9,11.4 c-1.7,1.5-1.9,4.1-0.4,5.7c4,4.4,9.2,8.2,15.4,11.3c7.8,3.8,17.4,5.2,28.9,4.5c27.3-1.8,40.2-15.4,38.9-35.4 C341.7,98.6,333.9,89.8,315.8,84.6" class="st22"/><path d="M309.8,511.5c0,6.7-5.5,12.2-12.2,12.2c-6.7,0-12.2-5.5-12.2-12.2c0-6.7,5.5-12.2,12.2-12.2 C304.4,499.3,309.8,504.8,309.8,511.5z" class="st18"/><path d="M371.3,511.5c0,6.7-5.5,12.2-12.2,12.2c-6.7,0-12.2-5.5-12.2-12.2c0-6.7,5.4-12.2,12.2-12.2 C365.9,499.3,371.3,504.8,371.3,511.5z" class="st18"/><circle cx="402.2" cy="511.5" r="12.2" class="st18"/><path d="M229.8,511.5c0,6.7-5.4,12.2-12.2,12.2c-6.7,0-12.2-5.5-12.2-12.2c0-6.7,5.5-12.2,12.2-12.2 C224.4,499.3,229.8,504.8,229.8,511.5z" class="st18"/><path d="M318.1,554.2h-40.3c-12.7,0-23-10.4-23-23v-40.3c0-12.7,10.4-23,23-23h40.3c12.7,0,23,10.4,23,23v40.3 C341.1,543.8,330.7,554.2,318.1,554.2z" class="st66"/><path d="M385.3,354.7c0,0-31.9-45.9-70.8-24.1c-41.5-16.5-67,33.3-67,33.3c-65.4,4.4-93.6-79.9-94.6-92.9l6.6,98.8 c4.7,70.2,92.8,65.9,92.8,65.9l71.2,29.9l0,0l66.6-39c0,0,49.6-4.9,45-75.1l-6.6-98.8C429.3,265.6,450.7,350.3,385.3,354.7 M317.4,373.6L317.4,373.6L317.4,373.6L317.4,373.6c-47.7,4.8-52.6-10.9-52.6-10.9c27.2,4.6,50.7-17.7,50.7-17.8 c0.1,0,26.3,19.1,52.6,10.9C368.1,355.8,365.3,372,317.4,373.6" class="st21"/><rect width="51.8" height="17.3" x="243.3" y="502.4" class="st31"/><g><rect width="36.3" height="68.7" x="602.6" y="312.2" class="st34" transform="matrix(0.4967 -0.8679 0.8679 0.4967 11.6673 713.2137)"/><polygon points="659.6 347.8 655 356 595.3 321.9 600 313.7" class="st35"/></g><g><path d="M201.9,565.3c-11.3,14.9-30,19.7-41.9,10.7c-11.9-9-12.3-28.3-1.1-43.2c11.3-14.9,30-19.7,41.9-10.7 C212.7,531.1,213.1,550.4,201.9,565.3z" class="st25"/><polygon points="165.8 562.2 136.1 541.2 175.8 485.1 205.5 506.1" class="st34"/><polygon points="165.8 562.2 158.1 556.8 197.8 500.7 205.5 506.1" class="st35"/></g><path d="M337.8,322.9c0.3,5.1-11.1,10-25.6,11c-14.5,1-26.5-2.4-26.8-7.5c-0.4-5.1,11.1-10,25.6-11 C325.5,314.4,337.5,317.8,337.8,322.9z" class="st32"/><path d="M237.2,237.3c0,0,21.5-25.3,46.7-9" class="st67"/><path d="M396.4,591.6c13.2-3.2,224.1-49.4,142.5,91.3" class="st68"/><g><polygon points="574.8 665.8 537.4 748.4 576.8 774.4 572.9 788.8 500.9 769.6 517.2 650.5" class="st18"/><polygon points="525.8 636.9 484.8 683.3 591.9 711.8 579.3 651.1" class="st19"/></g><path d="M217.6,603.2c0,0,214.2,0.7,171,141.2" class="st68"/><g><polygon points="423.3 721.2 408.4 810.6 453.1 825.6 453.1 840.5 378.6 840.5 363.7 721.2" class="st18"/><polygon points="368.5 705.8 340.9 761.2 451.6 761.2 423.9 705.8" class="st69"/></g></g><g><path d="M564.8,549.8c0,0,0,25,25,25H715c0,0,25,0,25-25H564.8z" class="st31"/><path d="M386.8,549.8c0,0,0,25,25,25h203c0,0,25,0,25-25H386.8z" class="st63"/><path d="M469.8,549.8c0,0,0,6.6,6.6,6.6h74c0,0,6.6,0,6.6-6.6H469.8z" class="st70"/><g><g><path d="M589.4,549.8l39.2-247.5c0,0,4-25,13.4-25c9.4,0,131.4,0,131.4,0s9.4,0,5.4,25l-39.2,247.5H589.4z" class="st70"/><polygon points="734.1 524.8 602.7 524.8 638 302.2 769.4 302.2" class="st53"/></g><path d="M689,289.7c-0.7,4.1-2.8,7.4-4.9,7.4c-2,0-3.2-3.3-2.5-7.4c0.6-4.1,2.8-7.4,4.9-7.4 C688.5,282.3,689.6,285.6,689,289.7z" class="st63"/><path d="M687.3,289.7c-0.4,2.3-1.6,4.2-2.8,4.2c-1.2,0-1.8-1.9-1.4-4.2c0.4-2.3,1.6-4.2,2.8-4.2 C687.1,285.6,687.7,287.4,687.3,289.7z" class="st71"/><path d="M697.8,289.7c0,0,0.2-1.1,1.3-1.1h13.5c0,0,1.1,0,0.9,1.1c-0.2,1.1-1.3,1.1-1.3,1.1h-13.5 C698.7,290.9,697.6,290.9,697.8,289.7z" class="st71"/><g><polygon points="686.4 360.5 661.5 360.5 668.9 313.4 693.8 313.4" class="st29"/><polygon points="675.2 372.3 659.6 372.3 660.5 366.4 676.1 366.4" class="st70"/><polygon points="717.4 360.5 692.6 360.5 700 313.4 724.9 313.4" class="st20"/><polygon points="706.2 372.3 690.7 372.3 691.6 366.4 707.2 366.4" class="st70"/><polygon points="748.5 360.5 723.7 360.5 731.1 313.4 756 313.4" class="st22"/><polygon points="737.3 372.3 721.8 372.3 722.7 366.4 738.3 366.4" class="st70"/><polygon points="675.2 431.2 650.3 431.2 657.7 384.1 682.6 384.1" class="st26"/><polygon points="664 442.9 648.4 442.9 649.4 437.1 664.9 437.1" class="st70"/><polygon points="706.2 431.2 681.4 431.2 688.8 384.1 713.7 384.1" class="st35"/><polygon points="695.1 442.9 679.5 442.9 680.4 437.1 696 437.1" class="st70"/><polygon points="737.3 431.2 712.5 431.2 719.9 384.1 744.8 384.1" class="st29"/><polygon points="726.1 442.9 710.6 442.9 711.5 437.1 727.1 437.1" class="st70"/><polygon points="664 501.8 639.1 501.8 646.5 454.7 671.4 454.7" class="st21"/><polygon points="652.8 513.6 637.2 513.6 638.2 507.7 653.7 507.7" class="st70"/><polygon points="695.1 501.8 670.2 501.8 677.6 454.7 702.5 454.7" class="st22"/><polygon points="683.9 513.6 668.3 513.6 669.2 507.7 684.8 507.7" class="st70"/><polygon points="726.1 501.8 701.3 501.8 708.7 454.7 733.6 454.7" class="st29"/><polygon points="714.9 513.6 699.4 513.6 700.3 507.7 715.9 507.7" class="st70"/><polygon points="661.8 319.3 643.1 319.3 644.1 313.4 662.7 313.4" class="st70"/><polygon points="653.7 331 641.3 331 642.2 325.1 654.6 325.1" class="st63"/><polygon points="648.7 342.8 639.4 342.8 640.3 336.9 649.7 336.9" class="st63"/><polygon points="658.1 342.8 651.9 342.8 652.8 336.9 659 336.9" class="st63"/><polygon points="653.1 354.6 637.5 354.6 638.5 348.7 654 348.7" class="st63"/><polygon points="654.3 366.4 635.7 366.4 636.6 360.5 655.3 360.5" class="st63"/><polygon points="649.4 378.2 633.8 378.2 634.8 372.3 650.3 372.3" class="st63"/></g></g></g></g></g></svg>